<svg width="240" height="134" id="kodin_logo" viewBox="0 0 240 134" xmlns="http://www.w3.org/2000/svg">
    <g id="background" featurekey="background" fill="#7082d6" transform="matrix(1,0,0,1,0,5)">
        <rect xmlns="http://www.w3.org/2000/svg" width="240" rx="10" ry="10" height="114"></rect>
    </g>
    <g id="kodin_name" featurekey="kodin_name" fill="#ffffff" transform="matrix(2.4002204066414548,0,0,2.4002204066414548,14.96049533340629,10.458864761443355)">
        <path d="M5.7422 15.683575 l7.4219 -5.1172 l4.8535 0 l-9.0332 6.4355 l9.6387 6.9824 l-5.2832 0 l-7.5977 -5.5762 l0 5.5762 l-3.6426 0 l0 -13.418 l3.6426 0 l0 5.1172 z M38.086046875 17.285175 q0 1.728515625 -0.634765625 3.051757813 t-1.8164 2.2119 t-2.8662 1.3428 t-3.7842 0.4541 t-3.7939 -0.4541 t-2.8857 -1.3428 t-1.8359 -2.2119 t-0.64453 -3.0518 t0.64453 -3.0518 t1.8359 -2.2119 t2.8857 -1.3428 t3.7939 -0.4541 t3.7842 0.4541 t2.8662 1.3428 t1.8164 2.2119 t0.63477 3.0518 z M34.424046875 17.285175 q0 -0.751953125 -0.2392578125 -1.499023438 t-0.84961 -1.3428 t-1.665 -0.9668 t-2.6855 -0.37109 q-1.09375 0 -1.923828125 0.1708984375 t-1.4355 0.47363 t-1.0156 0.70801 t-0.6543 0.86914 t-0.34668 0.9668 t-0.10254 0.99121 q0 0.498046875 0.1025390625 1.005859375 t0.34668 0.97168 t0.6543 0.86426 t1.0156 0.69824 t1.4355 0.46875 t1.9238 0.1709 q1.630859375 0 2.685546875 -0.37109375 t1.665 -0.9668 t0.84961 -1.3428 t0.23926 -1.499 z M57.822109375 17.265575 q0 1.2890625 -0.283203125 2.290039063 t-0.7959 1.7432 t-1.2305 1.2598 t-1.5967 0.83008 t-1.8945 0.4541 t-2.1191 0.1416 l-8.5156 0 l0 -13.418 l8.4961 0 q1.103515625 0 2.119140625 0.1416015625 t1.8994 0.4541 t1.6064 0.8252 t1.2354 1.2598 t0.7959 1.7432 t0.2832 2.2754 z M54.170109374999996 17.265575 q0 -0.966796875 -0.2490234375 -1.6796875 t-0.80078 -1.1768 t-1.4404 -0.69336 t-2.168 -0.22949 l-4.502 0 l0 7.5781 l4.502 0 q1.279296875 0 2.16796875 -0.2294921875 t1.4404 -0.70313 t0.80078 -1.1865 t0.24902 -1.6797 z M61.1230375 23.984375 l0 -13.418 l3.623 0 l0 13.418 l-3.623 0 z M81.728703125 23.984375 l0 -7.5195 q0 -0.751953125 -0.126953125 -1.362304688 t-0.47363 -1.0449 t-0.9668 -0.67383 t-1.5967 -0.23926 q-0.7421875 0 -1.557617188 0.2001953125 t-1.6162 0.53223 t-1.5283 0.77148 t-1.2939 0.91797 l0 8.418 l-3.623 0 l0 -13.418 l3.623 0 l0 1.8359 q0.68359375 -0.390625 1.455078125 -0.7763671875 t1.6406 -0.69824 t1.8457 -0.50781 t2.0605 -0.19531 q1.357421875 0 2.426757813 0.3271484375 t1.8115 0.92773 t1.1377 1.4551 t0.39551 1.9092 l0 9.1406 l-3.6133 0 z"></path>
    </g>
    <g id="software_ltd" featurekey="software_ltd" fill="#ffffff" transform="matrix(0.7081511644916262,0,0,0.7081511644916262,46.024740289104635,76.75952821438494)">
        <path d="M14.463 14.345675 q-0.380859375 -0.185546875 -1.005859375 -0.419921875 t-1.416 -0.44434 t-1.7188 -0.35156 t-1.9043 -0.1416 q-0.78125 0 -1.333007813 0.048828125 t-0.92773 0.12695 t-0.5957 0.18066 t-0.33691 0.20996 t-0.15137 0.21484 t-0.03418 0.19531 q0 0.29296875 0.29296875 0.5126953125 t0.80078 0.39063 t1.1816 0.32227 t1.4307 0.3125 t1.5625 0.35156 t1.5625 0.44434 t1.4307 0.59082 t1.1816 0.78613 t0.80078 1.0352 t0.29297 1.3379 q0 0.966796875 -0.341796875 1.66015625 t-0.91309 1.1719 t-1.3232 0.7666 t-1.5771 0.44434 t-1.6699 0.20508 t-1.6064 0.048828 q-1.9921875 0 -3.686523438 -0.3271484375 t-2.9932 -0.81543 l0 -3.2031 q1.337890625 0.7421875 3.051757813 1.162109375 t3.667 0.41992 q1.15234375 0 1.879882813 -0.1220703125 t1.1377 -0.3125 t0.55664 -0.41504 t0.14648 -0.42969 q0 -0.322265625 -0.29296875 -0.5615234375 t-0.80078 -0.41992 t-1.1816 -0.33203 t-1.4307 -0.30273 t-1.5576 -0.32715 t-1.5576 -0.41504 t-1.4307 -0.55664 t-1.1816 -0.75195 t-0.80078 -1.0059 t-0.29297 -1.3232 q0 -0.888671875 0.3125 -1.533203125 t0.84473 -1.0986 t1.2305 -0.7373 t1.4697 -0.43945 t1.5625 -0.21484 t1.5039 -0.058594 q0.78125 0 1.606445313 0.078125 t1.626 0.21973 t1.5479 0.32715 t1.3818 0.39063 l0 3.1055 z M36.367296875 17.285175 q0 1.728515625 -0.634765625 3.051757813 t-1.8164 2.2119 t-2.8662 1.3428 t-3.7842 0.4541 t-3.7939 -0.4541 t-2.8857 -1.3428 t-1.8359 -2.2119 t-0.64453 -3.0518 t0.64453 -3.0518 t1.8359 -2.2119 t2.8857 -1.3428 t3.7939 -0.4541 t3.7842 0.4541 t2.8662 1.3428 t1.8164 2.2119 t0.63477 3.0518 z M32.705296875 17.285175 q0 -0.751953125 -0.2392578125 -1.499023438 t-0.84961 -1.3428 t-1.665 -0.9668 t-2.6855 -0.37109 q-1.09375 0 -1.923828125 0.1708984375 t-1.4355 0.47363 t-1.0156 0.70801 t-0.6543 0.86914 t-0.34668 0.9668 t-0.10254 0.99121 q0 0.498046875 0.1025390625 1.005859375 t0.34668 0.97168 t0.6543 0.86426 t1.0156 0.69824 t1.4355 0.46875 t1.9238 0.1709 q1.630859375 0 2.685546875 -0.37109375 t1.665 -0.9668 t0.84961 -1.3428 t0.23926 -1.499 z M46.005859375 13.427375 q-0.634765625 0 -1.137695313 0.048828125 t-0.85449 0.23438 t-0.53711 0.55176 t-0.18555 1.001 l0 0.49805 l10.117 0 l0 2.8613 l-10.117 0 l0 5.3613 l-3.623 0 l0 -9.0234 q0 -1.03515625 0.3076171875 -1.85546875 t1.0303 -1.3818 t1.9141 -0.85938 t2.9688 -0.29785 l7.998 0 l0 2.8613 l-7.8809 0 z M64.511678125 13.486375 l0 10.498 l-3.623 0 l0 -10.498 l-5.6934 0 l0 -2.9199 l15.02 0 l0 2.9199 l-5.7031 0 z M85.6448125 10.566375 l3.4277 9.3164 l3.7109 -9.3164 l3.7598 0 l-5.3906 13.418 l-4.0234 0 l-3.5059 -9.0234 l-3.4961 9.0234 l-4.0234 0 l-5.4004 -13.418 l3.7695 0 l3.6328 9.1211 l3.5059 -9.1211 l4.0332 0 z M110.225046875 23.984375 l0 -1.3184 q-0.693359375 0.380859375 -1.489257813 0.673828125 t-1.6553 0.49805 t-1.7725 0.30762 t-1.8408 0.10254 q-1.083984375 0 -2.094726563 -0.205078125 t-1.792 -0.66406 t-1.2549 -1.2012 t-0.47363 -1.8164 q0 -1.357421875 0.7421875 -2.260742188 t2.2656 -1.4795 t3.8525 -0.88867 t5.5127 -0.48828 l0 -0.2832 q0 -0.33203125 -0.17578125 -0.6591796875 t-0.63965 -0.57617 t-1.2695 -0.40527 t-2.0557 -0.15625 q-0.986328125 0 -1.948242188 0.1025390625 t-1.8555 0.27832 t-1.6943 0.41016 t-1.4551 0.48828 l0 -3.2227 q0.68359375 -0.17578125 1.533203125 -0.341796875 t1.7676 -0.28809 t1.8555 -0.19531 t1.7969 -0.073242 q1.689453125 0 3.115234375 0.2783203125 t2.4561 0.86426 t1.6113 1.4844 t0.58105 2.1387 l0 8.8965 l-3.623 0 z M110.225046875 17.861375 q-2.08984375 0.078125 -3.549804688 0.224609375 t-2.4268 0.3418 t-1.5186 0.41992 t-0.8252 0.45898 t-0.33691 0.46875 t-0.063477 0.42969 q0 0.234375 0.126953125 0.4541015625 t0.44434 0.38574 t0.84473 0.26367 t1.3281 0.097656 q0.888671875 0 1.73828125 -0.13671875 t1.6113 -0.37598 t1.4307 -0.56641 t1.1963 -0.69824 l0 -1.7676 z M130.331671875 13.603375 q-0.146484375 -0.048828125 -0.4248046875 -0.1318359375 t-0.64941 -0.16602 t-0.81543 -0.1416 t-0.91309 -0.058594 q-0.9765625 0 -1.821289063 0.2392578125 t-1.5771 0.63477 t-1.3623 0.89844 t-1.1572 1.0303 l0 8.0762 l-3.623 0 l0 -13.418 l3.623 0 l0 2.1777 q0.654296875 -0.48828125 1.342773438 -0.9423828125 t1.4355 -0.80566 t1.5771 -0.56152 t1.7578 -0.20996 q0.3515625 0 0.7177734375 0.0341796875 t0.71289 0.083008 t0.64941 0.10742 t0.52734 0.11719 l0 3.0371 l0 0 z M147.58834375 23.320315 q-1.650390625 0.546875 -3.295898438 0.7861328125 t-3.3643 0.23926 q-2.197265625 0 -3.911132813 -0.4736328125 t-2.8857 -1.3721 t-1.7871 -2.1973 t-0.61523 -2.9395 q0 -1.5234375 0.6201171875 -2.827148438 t1.7578 -2.2656 t2.749 -1.5039 t3.5938 -0.54199 q1.826171875 0 3.344726563 0.4931640625 t2.6074 1.46 t1.6895 2.3828 t0.60059 3.2617 l0 0.89844 l-13.223 0 q0.17578125 0.634765625 0.5810546875 1.162109375 t1.0986 0.89844 t1.7041 0.57617 t2.417 0.20508 q0.99609375 0 1.953125 -0.1220703125 t1.7871 -0.32227 t1.499 -0.44434 t1.0791 -0.48828 l0 3.1348 z M145.08834375 16.064475 q-0.048828125 -0.498046875 -0.2978515625 -1.030273438 t-0.78613 -0.96191 t-1.4063 -0.70801 t-2.168 -0.27832 q-1.220703125 0 -2.109375 0.302734375 t-1.4893 0.75195 t-0.93262 0.9668 t-0.42969 0.95703 l9.6191 0 z  M159.50194375 23.984375 l0 -13.418 l3.623 0 l0 10.479 l9.7949 0 l0 2.9395 l-13.418 0 z M183.339803125 13.486375 l0 10.498 l-3.623 0 l0 -10.498 l-5.6934 0 l0 -2.9199 l15.02 0 l0 2.9199 l-5.7031 0 z M207.8709375 17.265575 q0 1.2890625 -0.283203125 2.290039063 t-0.7959 1.7432 t-1.2305 1.2598 t-1.5967 0.83008 t-1.8945 0.4541 t-2.1191 0.1416 l-8.5156 0 l0 -13.418 l8.4961 0 q1.103515625 0 2.119140625 0.1416015625 t1.8994 0.4541 t1.6064 0.8252 t1.2354 1.2598 t0.7959 1.7432 t0.2832 2.2754 z M204.2189375 17.265575 q0 -0.966796875 -0.2490234375 -1.6796875 t-0.80078 -1.1768 t-1.4404 -0.69336 t-2.168 -0.22949 l-4.502 0 l0 7.5781 l4.502 0 q1.279296875 0 2.16796875 -0.2294921875 t1.4404 -0.70313 t0.80078 -1.1865 t0.24902 -1.6797 z"></path>
    </g>
</svg>
